<svg fill="#000000" xmlns="http://www.w3.org/2000/svg"  viewBox="0 0 100 100" width="100px" height="100px"><path d="M 20 19 C 15.593562 19 12 22.593562 12 27 L 12 70 L 9 70 A 1.0001 1.0001 0 0 0 8 71 L 8 74 C 8 77.854334 11.145666 81 15 81 L 85 81 C 88.854334 81 92 77.854334 92 74 L 92 71 A 1.0001 1.0001 0 0 0 91 70 L 88 70 L 88 27 C 88 22.593562 84.406438 19 80 19 L 20 19 z M 20 21 L 80 21 C 83.325562 21 86 23.674438 86 27 L 86 70 L 14 70 L 14 27 C 14 23.674438 16.674438 21 20 21 z M 48.5 24 A 0.50005 0.50005 0 1 0 48.5 25 L 51.5 25 A 0.50005 0.50005 0 1 0 51.5 24 L 48.5 24 z M 17.5 28 A 0.50005 0.50005 0 0 0 17 28.5 L 17 54.5 A 0.50005 0.50005 0 1 0 18 54.5 L 18 29 L 82.5 29 A 0.50005 0.50005 0 1 0 82.5 28 L 17.5 28 z M 82.492188 31.992188 A 0.50005 0.50005 0 0 0 82 32.5 L 82 67 L 18 67 L 18 62.5 A 0.50005 0.50005 0 1 0 17 62.5 L 17 67.5 A 0.50005 0.50005 0 0 0 17.5 68 L 82.5 68 A 0.50005 0.50005 0 0 0 83 67.5 L 83 32.5 A 0.50005 0.50005 0 0 0 82.492188 31.992188 z M 17.492188 55.992188 A 0.50005 0.50005 0 0 0 17 56.5 L 17 60.5 A 0.50005 0.50005 0 1 0 18 60.5 L 18 56.5 A 0.50005 0.50005 0 0 0 17.492188 55.992188 z M 10 72 L 13 72 L 87 72 L 90 72 L 90 74 C 90 76.773666 87.773666 79 85 79 L 15 79 C 12.226334 79 10 76.773666 10 74 L 10 72 z M 46.5 74 A 0.50005 0.50005 0 1 0 46.5 75 L 53.5 75 A 0.50005 0.50005 0 1 0 53.5 74 L 46.5 74 z"/></svg>