<svg xmlns="http://www.w3.org/2000/svg" width="100" height="100" viewBox="0 0 100 100"><path d="M 20 19 C 15.593562 19 12 22.593562 12 27 L 12 70 L 9 70 A 1.0001 1.0001 0 0 0 8 71 L 8 74 C 8 77.854334 11.145666 81 15 81 L 85 81 C 88.854334 81 92 77.854334 92 74 L 92 71 A 1.0001 1.0001 0 0 0 91 70 L 88 70 L 88 27 C 88 22.593562 84.406438 19 80 19 L 20 19 z M 20 21 L 80 21 C 83.325562 21 86 23.674438 86 27 L 86 70 L 14 70 L 14 27 C 14 23.674438 16.674438 21 20 21 z M 48.5 24 A 0.50005 0.50005 0 1 0 48.5 25 L 51.5 25 A 0.50005 0.50005 0 1 0 51.5 24 L 48.5 24 z M 17.5 28 A 0.50005 0.50005 0 0 0 17 28.5 L 17 54.5 A 0.50005 0.50005 0 1 0 18 54.5 L 18 29 L 82.5 29 A 0.50005 0.50005 0 1 0 82.5 28 L 17.5 28 z M 82.492188 31.992188 A 0.50005 0.50005 0 0 0 82 32.5 L 82 67 L 18 67 L 18 62.5 A 0.50005 0.50005 0 1 0 17 62.5 L 17 67.5 A 0.50005 0.50005 0 0 0 17.5 68 L 82.5 68 A 0.50005 0.50005 0 0 0 83 67.5 L 83 32.5 A 0.50005 0.50005 0 0 0 82.492188 31.992188 z M 46.587891 40.007812 C 46.493766 39.991687 46.394234 40.002516 46.302734 40.041016 C 46.119734 40.120016 46.001953 40.301 46.001953 40.5 L 46 52.867188 C 46 53.066187 46.117781 53.246172 46.300781 53.326172 C 46.363781 53.353172 46.433 53.367188 46.5 53.367188 C 46.624 53.367188 46.746797 53.320422 46.841797 53.232422 L 49.634766 50.628906 L 51.742188 55.691406 C 51.794187 55.813406 51.890672 55.912891 52.013672 55.962891 C 52.074672 55.987891 52.141078 56 52.205078 56 C 52.270078 56 52.335484 55.987891 52.396484 55.962891 L 53.320312 55.576172 C 53.575313 55.470172 53.696797 55.178828 53.591797 54.923828 L 51.455078 49.796875 L 55.544922 49.425781 C 55.740922 49.407781 55.908656 49.276844 55.972656 49.089844 C 56.036656 48.903844 55.984797 48.6965 55.841797 48.5625 L 46.84375 40.134766 C 46.77075 40.066766 46.682016 40.023938 46.587891 40.007812 z M 17.492188 55.992188 A 0.50005 0.50005 0 0 0 17 56.5 L 17 60.5 A 0.50005 0.50005 0 1 0 18 60.5 L 18 56.5 A 0.50005 0.50005 0 0 0 17.492188 55.992188 z M 10 72 L 13 72 L 87 72 L 90 72 L 90 74 C 90 76.773666 87.773666 79 85 79 L 15 79 C 12.226334 79 10 76.773666 10 74 L 10 72 z M 46.5 74 A 0.50005 0.50005 0 1 0 46.5 75 L 53.5 75 A 0.50005 0.50005 0 1 0 53.5 74 L 46.5 74 z"/></svg>